<svg id="Layer_1" data-name="Layer 1" xmlns="http://www.w3.org/2000/svg" xmlns:xlink="http://www.w3.org/1999/xlink" viewBox="0 0 346.47 350.46"><defs><style>.cls-1{fill:none;}.cls-2{clip-path:url(#clip-path);}.cls-3{clip-path:url(#clip-path-2);}.cls-4{fill:#f9ca03;}.cls-5{clip-path:url(#clip-path-3);}.cls-6{fill:#fff;fill-rule:evenodd;}</style><clipPath id="clip-path"><rect class="cls-1" x="19.74" width="303.56" height="234.07"/></clipPath><clipPath id="clip-path-2"><path class="cls-1" d="M121,8.76A160.08,160.08,0,0,1,171.58,0a152,152,0,0,1,49.47,8.27c.33.16.66.16,1,.33,57.83,21.17,100.42,77.06,101.24,139.29v66.18a20,20,0,0,1-20,20H39.74a20,20,0,0,1-20-20V148C20.55,85.33,62.49,29.43,121,8.76Z"/></clipPath><clipPath id="clip-path-3"><rect class="cls-1" x="47.09" y="71.04" width="248.84" height="122.96"/></clipPath></defs><g class="cls-2"><g class="cls-3"><path class="cls-4" d="M19.74,0H323.3V234.07H19.74Z"/></g></g><g class="cls-5"><path class="cls-6" d="M112.91,105.07l-.24,32.71c-9.83,1.6-19.32,3.15-27.62,4.54l-2.72-26.23C90.64,113,101.38,109.17,112.91,105.07Zm32.6-11.59-.27,39.18c-9.49,1.46-19.56,3.05-29.42,4.61L113,105C123.69,101.24,135,97.24,145.51,93.48Zm-55.62,62.3,63.25-6.64s-.21,4.23-5.76,5.58-57.72,2.34-57.72,2.34Zm4.65,8.4L149,159.54a8.11,8.11,0,0,1-5.9,5.22c-4.82,1.18-48.78.71-48.78.71ZM63.42,152s111.78-16.71,115.31-16,3.83,5.22,3.83,5.22L63.66,152.86Zm160.49,5.79s10,1.16,14.37,2.85a7.36,7.36,0,0,1,4,3.76c-2.88-.57-12.3-2.51-12-1.76s7.35,4.1,10.71,4.95c-4.51.1-14.34.27-15.62-.48C223.6,166.08,223.91,157.74,223.91,157.74ZM220.62,189a15.9,15.9,0,0,1-3.76-5.33c-11.39-.13-21.63-.4-28.1-.57a18.91,18.91,0,0,1-3.83,5.69C197.47,188.85,209.46,188.92,220.62,189ZM130.19,189c9.46-.07,19.46-.14,29.8-.14a17.93,17.93,0,0,1-3.43-4.34l0-.06-23.32.16A12.22,12.22,0,0,1,130.19,189Zm-40,.47c7.56-.13,15.93-.24,25-.34a11.76,11.76,0,0,1-3.11-4.33l-18.07.13A11.64,11.64,0,0,1,90.16,189.43ZM182.29,177c1.25,0,3,0,5.22.06h3.12v.07c20.5.54,65.37,2,82.45-1,2.75-.48,4.85-1.49,5.9-2.71.54-.72.58-3.6.31-7.26-3.39.41-6.51.68-6.51.68,2.78-1.18,5.39-2.54,5.56-3s-2.44-.06-5.32.44c.94-4,4.64-5.38,8.23-6.61,1.32,8,2.75,18.51,1.32,20.27-.91,1.15-3.82,3-8.16,3.73-6.38,1.05-15.8,1.63-26.21,1.9a16.47,16.47,0,0,1-4.13,5.73c31.35.47,51.86,1.25,51.86,2.1,0,1.42-55.92,2.61-124.42,2.61S47.09,192.82,47.09,191.4c0-.61,10.78-1.19,28.67-1.66a10.89,10.89,0,0,1-4.37-5l-3.09-.14-10.16-2.78-.34-1.69,9.62-.14v-7.46c0-8.27,3.6-15,10.85-15s10.85,6.71,10.85,15v7.19L132,179.2l20.21-.24v-4.34l-60.16,0v-2.2c17.72-.79,40.74-1.77,60.16-2.48v-.64c0-27.89,27.08-27.53,27.08.57a33.08,33.08,0,0,1-.79,7.25h3.84Zm-6.45-.48c-1.69,5-4.64,8.38-8,8.38-3.56,0-6.68-3.84-8.27-9.5,2.1,3.66,5.11,6,8.47,6C171.07,181.4,173.78,179.57,175.84,176.55Zm-7.92-18.33c3.08,0,5.56,3.66,5.65,8.2a5.95,5.95,0,0,0-11.31,0C162.36,161.88,164.83,158.22,167.92,158.22Zm-.35,15.66c1.22,0,2.18-1.83,2.18-4.07s-1-4.07-2.18-4.07-2.16,1.83-2.16,4.07S166.39,173.88,167.57,173.88Zm-89.09-7.6c2.09,0,3.82,2.61,3.89,5.93a4,4,0,0,0-7.8,0C74.64,168.89,76.34,166.28,78.48,166.28Zm-.61-6.74c4.13,0,7.55,5.25,8.16,12.13-1.42-4.95-4.54-8.34-8.16-8.34s-6.85,3.53-8.24,8.55C70.17,164.93,73.63,159.54,77.87,159.54Zm.37,18.06c.84,0,1.49-1.32,1.49-2.94s-.65-2.95-1.49-2.95-1.49,1.32-1.49,2.95S77.42,177.6,78.24,177.6Zm5.66,2c-1.15,3.66-3.15,6.07-5.46,6.07-2.48,0-4.61-2.78-5.73-6.88,1.46,2.64,3.53,4.3,5.86,4.3C80.61,183.06,82.51,181.74,83.9,179.57ZM167,150.69c4.85,0,8.84,5.8,9.52,13.36-1.65-5.42-5.28-9.19-9.49-9.19s-8,3.9-9.55,9.42C158.08,156.63,162.12,150.69,167,150.69ZM55.83,142.53l-.3-17.7c0-4.78,3.39-8.47,8.47-10.47,23-9.12,109.14-39.79,133.4-43.31,7.9,16.74,15.46,41.31,22.58,74.36a296.3,296.3,0,0,0-11.43-62.74c2.88.3,6.48.78,9.39,1.29,3.12,5,7.69,20,8.47,23.93.17,1,8.61,1.69,8-1.94-.07-.54-.27-1.42-.55-2.57h0s-.1-.44-.31-1.22A93,93,0,0,0,230.82,93c-.27-.64-.51-1.29-.78-1.89a38.35,38.35,0,0,0-3.18-6.75c-.28-.48-.45-.75-.45-.75l-.1,0a6.34,6.34,0,0,0-2.24-2c-3.08-1.36-11.79-2.48-16.74-3-.71-2.4-1.45-4.78-2.24-7.15,15.4,1.12,28.95,3.7,45,7.46a31.89,31.89,0,0,1,7,6.33c3.73.58,15.22,2.48,17.93,4.31A6.15,6.15,0,0,1,276.37,91l.11,0a63.84,63.84,0,0,1,4.74,7.76,66.28,66.28,0,0,1,4.06,10.68c.78,3-7.69,2.37-7.89,1.59-.95-3.28-6.14-15.86-9.46-19.86-2.37-.54-5.15-1-7.52-1.45,5.36,8,9.9,18.8,13.42,31-7.53,1.46-15.32,2.68-23.52,4.34,5.83-.21,14.88-.78,24.2-1.83.47,1.73.94,3.46,1.36,5.22-9.63,2.51-19.73,4.34-30.44,6.2,7.32-.07,19.69-.54,31.45-1.89.24,1.08.44,2.16.68,3.21-12.07,3.43-24.64,5.4-38.33,7.36a292.71,292.71,0,0,0,39.38-1.9c.14.88.27,1.73.41,2.61-14,4.2-28.61,5.73-44.74,7.76,10.37.44,31.08.61,45.68-1.7.14,1.16.31,2.34.45,3.53-14.48,3-35.18,4-57.15.51a16.81,16.81,0,0,1-3-.78l.58,19.15-4.64-21.35c-9.63-7.15-12.11-24-23.39-24l1.83,43,19.18,3.7-23.08-.34-1.63-50.91h0l-3-40.33-.31,45c-7.72.65-21.52,2.54-37.31,4.92l-2.92-38.71c24.13-8.54,44.37-15.62,44.37-15.62L69.29,116.46c-9,1.8-9,9.49-9.46,16.81,0,0,1.83-8.2,6.27-11,.51-.37,6.68-2.71,16-6.13l-.2,26.67-22.74,3.83L56,172.76l-.2-30.23"/></g><path class="cls-4" d="M0,266.65H19.44q6.93,0,11,2.79a8.66,8.66,0,0,1,4.08,7.5,9,9,0,0,1-1.87,5.66A9.77,9.77,0,0,1,27.48,286a10.2,10.2,0,0,1,6.17,3.58,10.46,10.46,0,0,1,2.29,6.79,9.76,9.76,0,0,1-4.27,8.32q-4.26,3.07-11.52,3.08H0Zm10.4,8v8.43h8.45A5.45,5.45,0,0,0,22.48,282a3.9,3.9,0,0,0,1.35-3.15,3.72,3.72,0,0,0-1.35-3,5.45,5.45,0,0,0-3.63-1.12Zm0,16v9.11h8.45a7.65,7.65,0,0,0,4.61-1.23,4,4,0,0,0,1.67-3.42,3.83,3.83,0,0,0-1.67-3.25,7.79,7.79,0,0,0-4.61-1.21Z"/><path class="cls-4" d="M72.74,276.1v31.65H62.58v-5.23q-3.24,5.66-10.27,5.65a10.73,10.73,0,0,1-8.25-3.3A12.34,12.34,0,0,1,41,296.06v-20H51.14v17.09a6.44,6.44,0,0,0,1.44,4.43,4.86,4.86,0,0,0,3.83,1.61,5.52,5.52,0,0,0,4.52-2.13,8.43,8.43,0,0,0,1.65-5.37V276.1Z"/><path class="cls-4" d="M92.16,275.65a25.24,25.24,0,0,1,13,3.56l-3.46,6.58q-5.88-3.17-10-3.17c-2.08,0-3.13.73-3.13,2.17q0,1.18,1.71,2a25.08,25.08,0,0,0,4.17,1.44,41.76,41.76,0,0,1,4.89,1.62,9.93,9.93,0,0,1,4.15,3.07,7.91,7.91,0,0,1,1.71,5.16,8.68,8.68,0,0,1-3.71,7.44,16,16,0,0,1-9.62,2.67,22.66,22.66,0,0,1-14.21-4.46L81,297.25a19.37,19.37,0,0,0,11.2,3.92c2.32,0,3.48-.72,3.48-2.17q0-1.23-1.68-2a22.49,22.49,0,0,0-4.09-1.48,41.78,41.78,0,0,1-4.81-1.61,10.1,10.1,0,0,1-4.08-3,7.92,7.92,0,0,1-1.67-5.18,8.61,8.61,0,0,1,3.58-7.38A15.24,15.24,0,0,1,92.16,275.65Z"/><path class="cls-4" d="M156,275H143.65v32.71H133.21V275H120.94V266.6H156Z"/><path class="cls-4" d="M170.6,276.1v5.36a11.33,11.33,0,0,1,10.27-5.81v9.14a10.62,10.62,0,0,0-7.1,1.44,7.08,7.08,0,0,0-3.17,5.25v16.27H160.43V276.1Z"/><path class="cls-4" d="M199.71,275.65q6.51,0,10.12,3a10.5,10.5,0,0,1,3.69,8.41v20.67h-9.94V304.1q-3.11,4.13-9.68,4.13a11.13,11.13,0,0,1-7.92-2.75,9.41,9.41,0,0,1-2.94-7.19,8.41,8.41,0,0,1,3.15-7q3.13-2.51,9-2.56h8.35v-.48A4.53,4.53,0,0,0,202,284.6a7,7,0,0,0-4.61-1.33,21,21,0,0,0-9.45,2.65L185,279.21A34.82,34.82,0,0,1,199.71,275.65ZM197,301.35a7.47,7.47,0,0,0,4.21-1.2,5.22,5.22,0,0,0,2.31-3.15v-2.81h-6.42q-4.56,0-4.56,3.39a3.43,3.43,0,0,0,1.17,2.77A4.87,4.87,0,0,0,197,301.35Z"/><path class="cls-4" d="M234.53,275.75a18.36,18.36,0,0,1,8.36,1.85,14,14,0,0,1,5.73,5.25l-7.27,4.42a7.5,7.5,0,0,0-6.42-3.29,6,6,0,0,0-4.79,2.21,8.64,8.64,0,0,0-1.83,5.77,8.91,8.91,0,0,0,1.81,5.85,6,6,0,0,0,4.81,2.19,6.82,6.82,0,0,0,6.46-3.58l7.39,4.35a13.17,13.17,0,0,1-5.66,5.44,19,19,0,0,1-8.71,1.89q-7.33,0-11.83-4.43T218.1,292q0-7.29,4.54-11.77T234.53,275.75Z"/><path class="cls-4" d="M267.57,295.54l-3.4,3.58v8.63H254V264.19h10.14v23l10.46-11.11h11.5L274.5,288.25l12,19.5h-12Z"/><path class="cls-4" d="M304.55,275.75q8.24,0,12.35,5.06t3.63,13.86H298.28A8,8,0,0,0,301,299a7.41,7.41,0,0,0,4.75,1.52,10.35,10.35,0,0,0,7.56-3.23l5.35,5.23q-5.1,5.58-13.79,5.58-7.71,0-12.25-4.39T288.07,292c0-4.88,1.51-8.82,4.54-11.79S299.62,275.75,304.55,275.75Zm-6.44,13.46h12.67a6.48,6.48,0,0,0-1.67-4.65,5.84,5.84,0,0,0-4.43-1.77,5.94,5.94,0,0,0-4.36,1.75A8.14,8.14,0,0,0,298.11,289.21Z"/><path class="cls-4" d="M336.2,276.1v5.36a11.34,11.34,0,0,1,10.27-5.81v9.14a10.62,10.62,0,0,0-7.1,1.44,7.11,7.11,0,0,0-3.17,5.25v16.27H326V276.1Z"/><path class="cls-4" d="M64.26,330.4l-6.71,19.89H55.34l-5.83-17-5.86,17H41.46l-6.7-19.89h2.16l5.75,17.1,5.94-17.1h2l5.85,17.18,5.81-17.18Z"/><path class="cls-4" d="M87.06,330.4v19.89H85v-9.18H72.54v9.18H70.43V330.4h2.11v8.87H85V330.4Z"/><path class="cls-4" d="M109.54,348.48v1.81H95.46V330.4h13.65v1.81H97.57v7.08h10.29v1.79H97.57v7.4Z"/><path class="cls-4" d="M130,350.29l-4.54-6.39c-.52.05-1,.08-1.58.08H118.5v6.31h-2.1V330.4h7.46a8.88,8.88,0,0,1,6,1.83,6.16,6.16,0,0,1,2.17,5,6.19,6.19,0,0,1-4.54,6.25l4.85,6.81Zm-6.19-8.1a6.94,6.94,0,0,0,4.52-1.29,5.12,5.12,0,0,0,0-7.38,6.88,6.88,0,0,0-4.52-1.31H118.5v10Z"/><path class="cls-4" d="M153,348.48v1.81H138.87V330.4h13.64v1.81H141v7.08h10.29v1.79H141v7.4Z"/><path class="cls-4" d="M176,343.42v6.87h-2.08v-6.87l-8-13h2.25L175,341.56l6.84-11.16H184Z"/><path class="cls-4" d="M197.86,350.46a11,11,0,0,1-5.36-1.31,9.91,9.91,0,0,1-3.75-3.63,10.56,10.56,0,0,1,0-10.33,9.76,9.76,0,0,1,3.75-3.63,11.48,11.48,0,0,1,10.69,0,9.64,9.64,0,0,1,3.73,3.63,10.56,10.56,0,0,1,0,10.37,9.64,9.64,0,0,1-3.73,3.63A11,11,0,0,1,197.86,350.46Zm0-1.88a8.54,8.54,0,0,0,4.25-1.06,7.62,7.62,0,0,0,3-3,8.77,8.77,0,0,0,0-8.43,7.69,7.69,0,0,0-3-3,9.09,9.09,0,0,0-8.52,0,7.81,7.81,0,0,0-3,3,8.56,8.56,0,0,0,0,8.43,7.74,7.74,0,0,0,3,3A8.61,8.61,0,0,0,197.86,348.58Z"/><path class="cls-4" d="M222.94,350.46a8,8,0,0,1-6-2.21q-2.17-2.22-2.17-6.46V330.4h2.1v11.31a7.4,7.4,0,0,0,1.57,5.17,6.89,6.89,0,0,0,9.06,0,7.45,7.45,0,0,0,1.56-5.17V330.4h2.06v11.39q0,4.24-2.14,6.46A8,8,0,0,1,222.94,350.46Z"/><path class="cls-4" d="M261.2,345H250.12l-2.38,5.31h-2.18l9.08-19.89h2.08l9.09,19.89H263.6Zm-.77-1.71-4.77-10.69-4.77,10.69Z"/><path class="cls-4" d="M284.61,350.29l-4.55-6.39c-.51.05-1,.08-1.58.08h-5.35v6.31H271V330.4h7.46a8.91,8.91,0,0,1,6,1.83,6.19,6.19,0,0,1,2.17,5,6.53,6.53,0,0,1-1.19,3.94,6.46,6.46,0,0,1-3.36,2.31l4.86,6.81Zm-6.19-8.1a6.94,6.94,0,0,0,4.52-1.29,5.14,5.14,0,0,0,0-7.38,6.88,6.88,0,0,0-4.52-1.31h-5.29v10Z"/><path class="cls-4" d="M307.58,348.48v1.81H293.49V330.4h13.65v1.81H295.6v7.08h10.29v1.79H295.6v7.4Z"/></svg>